<svg width="274" height="84" viewBox="0 0 274 84" fill="none" xmlns="http://www.w3.org/2000/svg">
<g filter="url(#filter0_i_5_160)">
<rect width="274" height="84" rx="18" fill="url(#paint0_linear_5_160)"/>
<rect x="0.5" y="0.5" width="273" height="83" rx="17.5" stroke="black"/>
<path d="M41.32 50.2C41.32 49.456 41.02 48.76 40.42 48.112C39.82 47.464 39.076 46.876 38.188 46.348C37.3 45.796 36.1 45.124 34.588 44.332C32.788 43.396 31.324 42.58 30.196 41.884C29.092 41.188 28.144 40.372 27.352 39.436C26.584 38.476 26.2 37.42 26.2 36.268C26.2 35.068 26.704 33.784 27.712 32.416C28.744 31.024 30.004 29.86 31.492 28.924C32.98 27.964 34.348 27.484 35.596 27.484C37.108 27.484 38.86 27.664 40.852 28.024C42.868 28.384 44.344 28.768 45.28 29.176V36.34H43.516C42.388 34.396 41.14 32.884 39.772 31.804C38.404 30.724 36.964 30.184 35.452 30.184C34.156 30.184 33.136 30.592 32.392 31.408C31.648 32.2 31.276 33.232 31.276 34.504C31.276 35.296 31.576 36.04 32.176 36.736C32.8 37.408 33.568 38.02 34.48 38.572C35.392 39.124 36.616 39.796 38.152 40.588C39.976 41.548 41.416 42.364 42.472 43.036C43.552 43.708 44.464 44.5 45.208 45.412C45.976 46.324 46.36 47.344 46.36 48.472C46.36 49.672 45.808 50.968 44.704 52.36C43.624 53.728 42.292 54.892 40.708 55.852C39.124 56.788 37.684 57.256 36.388 57.256C34.804 57.256 32.92 57.076 30.736 56.716C28.552 56.356 26.98 55.972 26.02 55.564V48.4H27.784C28.984 50.344 30.34 51.856 31.852 52.936C33.388 54.016 34.96 54.556 36.568 54.556C37.528 54.556 38.368 54.352 39.088 53.944C39.808 53.536 40.36 53.008 40.744 52.36C41.128 51.688 41.32 50.968 41.32 50.2ZM61.235 56.572C60.635 56.764 59.903 56.86 59.039 56.86C56.975 56.86 55.463 56.344 54.503 55.312C53.567 54.256 53.099 52.636 53.099 50.452V40.048H49.211V38.5L56.231 30.436H57.779V38.392H64.259V40.048H57.779V50.74C57.779 52.636 58.715 53.584 60.587 53.584C61.091 53.584 61.571 53.488 62.027 53.296C62.483 53.08 63.071 52.708 63.791 52.18L64.871 53.692L61.235 56.572ZM86.4311 56.5H79.3031V53.368L75.2351 56.572C74.7551 56.764 74.1551 56.86 73.4351 56.86C71.3231 56.86 69.7991 56.344 68.8631 55.312C67.9271 54.256 67.4591 52.984 67.4591 51.496C67.4591 50.632 67.7591 49.78 68.3591 48.94C68.9591 48.076 69.8351 47.26 70.9871 46.492H79.3031V44.548C79.3031 41.74 77.8031 40.336 74.8031 40.336C73.2911 40.336 71.3951 41.188 69.1151 42.892L68.0351 41.38L73.1831 37.312C74.2871 37.072 75.4871 36.952 76.7831 36.952C79.0631 36.952 80.8271 37.504 82.0751 38.608C83.3471 39.712 83.9831 41.308 83.9831 43.396V53.62L87.2231 54.88L86.4311 56.5ZM74.7311 53.44C76.1471 53.44 77.6711 52.804 79.3031 51.532V48.148H73.0391C72.7511 48.508 72.5471 48.868 72.4271 49.228C72.3071 49.588 72.2471 49.984 72.2471 50.416C72.2471 51.256 72.4751 51.976 72.9311 52.576C73.3871 53.152 73.9871 53.44 74.7311 53.44ZM101.295 41.02C100.791 41.02 100.263 41.152 99.7109 41.416C99.1589 41.68 98.5349 42.16 97.8389 42.856V53.404L102.951 54.916L102.159 56.536H89.9549V55.24L93.1589 52.684V42.892L89.9549 40.984V39.688L96.3629 36.628L97.5509 40.984L101.187 37.24C101.739 37.048 102.387 36.952 103.131 36.952C104.019 36.952 104.787 37.18 105.435 37.636C106.107 38.092 106.611 38.74 106.947 39.58L104.355 42.82H102.807C102.711 42.172 102.543 41.716 102.303 41.452C102.063 41.164 101.727 41.02 101.295 41.02ZM119.63 56.572C119.03 56.764 118.298 56.86 117.434 56.86C115.37 56.86 113.858 56.344 112.898 55.312C111.962 54.256 111.494 52.636 111.494 50.452V40.048H107.606V38.5L114.626 30.436H116.174V38.392H122.654V40.048H116.174V50.74C116.174 52.636 117.11 53.584 118.982 53.584C119.486 53.584 119.966 53.488 120.422 53.296C120.878 53.08 121.466 52.708 122.186 52.18L123.266 53.692L119.63 56.572ZM161.9 50.668L162.872 52.36L156.248 56.428C155.192 56.74 154.172 56.944 153.188 57.04C152.228 57.16 151.196 57.22 150.092 57.22C147.38 57.22 144.98 56.608 142.892 55.384C140.804 54.16 139.184 52.48 138.032 50.344C136.88 48.184 136.304 45.736 136.304 43C136.304 40.192 137.168 37.6 138.896 35.224C140.624 32.824 142.772 30.94 145.34 29.572C147.932 28.18 150.392 27.484 152.72 27.484C154.112 27.484 155.732 27.664 157.58 28.024C159.452 28.384 160.82 28.768 161.684 29.176V36.484H159.92C157.544 32.644 154.448 30.724 150.632 30.724C148.952 30.724 147.416 31.18 146.024 32.092C144.656 33.004 143.576 34.264 142.784 35.872C141.992 37.48 141.596 39.28 141.596 41.272C141.596 43.576 141.98 45.688 142.748 47.608C143.516 49.528 144.68 51.064 146.24 52.216C147.824 53.368 149.78 53.944 152.108 53.944C153.092 53.944 153.92 53.92 154.592 53.872C155.264 53.8 156.056 53.608 156.968 53.296V45.016L151.352 43.504L152.18 41.884H165.284V43.18L161.9 45.88V50.668ZM187.857 56.5H180.729V53.368L176.661 56.572C176.181 56.764 175.581 56.86 174.861 56.86C172.749 56.86 171.225 56.344 170.289 55.312C169.353 54.256 168.885 52.984 168.885 51.496C168.885 50.632 169.185 49.78 169.785 48.94C170.385 48.076 171.261 47.26 172.413 46.492H180.729V44.548C180.729 41.74 179.229 40.336 176.229 40.336C174.717 40.336 172.821 41.188 170.541 42.892L169.461 41.38L174.609 37.312C175.713 37.072 176.913 36.952 178.209 36.952C180.489 36.952 182.253 37.504 183.501 38.608C184.773 39.712 185.409 41.308 185.409 43.396V53.62L188.649 54.88L187.857 56.5ZM176.157 53.44C177.573 53.44 179.097 52.804 180.729 51.532V48.148H174.465C174.177 48.508 173.973 48.868 173.853 49.228C173.733 49.588 173.673 49.984 173.673 50.416C173.673 51.256 173.901 51.976 174.357 52.576C174.813 53.152 175.413 53.44 176.157 53.44ZM225.365 56.5H218.237V44.404C218.237 43.156 218.033 42.28 217.625 41.776C217.241 41.272 216.557 41.02 215.573 41.02C214.877 41.02 214.181 41.152 213.485 41.416C212.789 41.68 211.985 42.184 211.073 42.928V53.692L214.277 54.88L213.485 56.5H206.393V44.404C206.393 43.156 206.189 42.28 205.781 41.776C205.397 41.272 204.713 41.02 203.729 41.02C203.033 41.02 202.337 41.152 201.641 41.416C200.945 41.68 200.153 42.184 199.265 42.928V53.728L202.433 54.916L201.641 56.536H191.381V55.24L194.585 52.684V42.892L191.381 40.984V39.688L197.789 36.628L199.013 41.164L203.693 37.24C204.245 37.048 204.905 36.952 205.673 36.952C207.065 36.952 208.217 37.324 209.129 38.068C210.065 38.788 210.665 39.796 210.929 41.092L215.537 37.24C216.089 37.048 216.749 36.952 217.517 36.952C219.173 36.952 220.481 37.456 221.441 38.464C222.425 39.448 222.917 40.792 222.917 42.496V53.692L226.157 54.88L225.365 56.5ZM241.601 56.536C240.569 56.752 239.321 56.86 237.857 56.86C236.249 56.86 234.797 56.452 233.501 55.636C232.229 54.796 231.221 53.668 230.477 52.252C229.757 50.836 229.397 49.264 229.397 47.536C229.397 45.664 229.961 43.924 231.089 42.316C232.241 40.684 233.681 39.388 235.409 38.428C237.137 37.444 238.805 36.952 240.413 36.952C242.741 36.952 244.541 37.864 245.813 39.688C247.109 41.512 247.745 43.948 247.721 46.996H234.473C234.641 48.916 235.193 50.488 236.129 51.712C237.065 52.912 238.337 53.512 239.945 53.512C241.529 53.512 243.785 52.384 246.713 50.128L247.793 51.604L241.601 56.536ZM238.361 40.228C235.889 40.228 234.593 41.932 234.473 45.34H242.573C242.357 44.116 242.129 43.168 241.889 42.496C241.673 41.824 241.289 41.284 240.737 40.876C240.185 40.444 239.381 40.228 238.325 40.228H238.361Z" fill="#1C1111"/>
</g>
<defs>
<filter id="filter0_i_5_160" x="-2.2" y="-2.2" width="276.2" height="86.2" filterUnits="userSpaceOnUse" color-interpolation-filters="sRGB">
<feFlood flood-opacity="0" result="BackgroundImageFix"/>
<feBlend mode="normal" in="SourceGraphic" in2="BackgroundImageFix" result="shape"/>
<feColorMatrix in="SourceAlpha" type="matrix" values="0 0 0 0 0 0 0 0 0 0 0 0 0 0 0 0 0 0 127 0" result="hardAlpha"/>
<feOffset dx="-17" dy="-7"/>
<feGaussianBlur stdDeviation="1.1"/>
<feComposite in2="hardAlpha" operator="arithmetic" k2="-1" k3="1"/>
<feColorMatrix type="matrix" values="0 0 0 0 0 0 0 0 0 0 0 0 0 0 0 0 0 0 0.25 0"/>
<feBlend mode="normal" in2="shape" result="effect1_innerShadow_5_160"/>
</filter>
<linearGradient id="paint0_linear_5_160" x1="6.50974e-08" y1="42" x2="242.5" y2="99" gradientUnits="userSpaceOnUse">
<stop offset="0.0598045" stop-color="#C7E8EB"/>
<stop offset="1" stop-color="#1E2C35"/>
</linearGradient>
</defs>
</svg>
