<svg width="274" height="84" viewBox="0 0 274 84" fill="none" xmlns="http://www.w3.org/2000/svg">
<g filter="url(#filter0_i_5_164)">
<rect width="274" height="84" rx="18" fill="url(#paint0_linear_5_164)"/>
<rect x="0.5" y="0.5" width="273" height="83" rx="17.5" stroke="black"/>
<path d="M121.248 55.532H101.856V54.38L104.864 52.012V32.908L101.472 31.788L102.208 30.348H120.928L122.784 29.772V37.292L121.664 37.676L117.824 31.98H109.216V41.836H113.984L116.32 37.836H117.472V47.468L116.032 48.204L114.016 43.468H109.216V53.868H117.664L121.984 47.5L123.104 47.916V56.108L121.248 55.532ZM144.942 55.532H139.886L134.958 48.876L131.534 52.076L134.478 54.124L133.774 55.564H126.67V54.412L133.934 47.532L129.39 41.612L126.51 39.884L127.246 38.444H132.302L137.198 45.004L140.494 41.932L137.518 39.884L138.254 38.444H145.326V39.596L138.19 46.348L142.734 52.236L145.646 54.092L144.942 55.532ZM157.004 55.5H147.852V54.348L150.7 52.076V43.116L147.852 41.164V40.012L153.484 37.836H154.86V53.004L157.74 54.06L157.004 55.5ZM152.652 28.236C153.356 28.236 153.932 28.492 154.38 29.004C154.828 29.4947 155.052 30.1027 155.052 30.828C155.052 31.34 154.892 31.8307 154.572 32.3C154.252 32.748 153.847 33.1107 153.356 33.388C152.866 33.644 152.386 33.772 151.916 33.772C151.234 33.772 150.668 33.5267 150.22 33.036C149.772 32.5453 149.548 31.9267 149.548 31.18C149.548 30.668 149.708 30.188 150.028 29.74C150.348 29.2707 150.754 28.908 151.244 28.652C151.735 28.3747 152.204 28.236 152.652 28.236ZM169.855 55.564C169.321 55.7347 168.671 55.82 167.903 55.82C166.068 55.82 164.724 55.3613 163.871 54.444C163.039 53.5053 162.623 52.0653 162.623 50.124V40.876H159.167V39.5L165.407 32.332H166.783V39.404H172.543V40.876H166.783V50.38C166.783 52.0653 167.615 52.908 169.279 52.908C169.727 52.908 170.153 52.8227 170.559 52.652C170.964 52.46 171.487 52.1293 172.127 51.66L173.087 53.004L169.855 55.564Z" fill="black"/>
</g>
<defs>
<filter id="filter0_i_5_164" x="-10.9" y="-10.9" width="284.9" height="94.9" filterUnits="userSpaceOnUse" color-interpolation-filters="sRGB">
<feFlood flood-opacity="0" result="BackgroundImageFix"/>
<feBlend mode="normal" in="SourceGraphic" in2="BackgroundImageFix" result="shape"/>
<feColorMatrix in="SourceAlpha" type="matrix" values="0 0 0 0 0 0 0 0 0 0 0 0 0 0 0 0 0 0 127 0" result="hardAlpha"/>
<feOffset dx="-21" dy="-15"/>
<feGaussianBlur stdDeviation="5.45"/>
<feComposite in2="hardAlpha" operator="arithmetic" k2="-1" k3="1"/>
<feColorMatrix type="matrix" values="0 0 0 0 0 0 0 0 0 0 0 0 0 0 0 0 0 0 0.25 0"/>
<feBlend mode="normal" in2="shape" result="effect1_innerShadow_5_164"/>
</filter>
<linearGradient id="paint0_linear_5_164" x1="1.00273e-06" y1="42" x2="287" y2="261.5" gradientUnits="userSpaceOnUse">
<stop offset="0.12" stop-color="#A2B4B9"/>
<stop offset="0.848778" stop-color="#2A3538"/>
</linearGradient>
</defs>
</svg>
