<svg width="274" height="84" viewBox="0 0 274 84" fill="none" xmlns="http://www.w3.org/2000/svg">
<g filter="url(#filter0_i_5_162)">
<rect width="274" height="84" rx="18" fill="url(#paint0_linear_5_162)"/>
<rect x="0.5" y="0.5" width="273" height="83" rx="17.5" stroke="black"/>
<path d="M81.096 29.708C83.4 29.708 85.4373 30.252 87.208 31.34C88.9787 32.428 90.344 33.932 91.304 35.852C92.2853 37.772 92.776 39.948 92.776 42.38C92.776 44.876 92.04 47.18 90.568 49.292C89.096 51.404 87.2613 53.0787 85.064 54.316C82.888 55.532 80.808 56.14 78.824 56.14C76.5413 56.14 74.5147 55.6067 72.744 54.54C70.9733 53.452 69.5973 51.948 68.616 50.028C67.656 48.108 67.176 45.932 67.176 43.5C67.176 41.004 67.912 38.7 69.384 36.588C70.856 34.4547 72.68 32.78 74.856 31.564C77.032 30.3267 79.112 29.708 81.096 29.708ZM79.24 32.588C77.8747 32.588 76.6267 32.9933 75.496 33.804C74.3867 34.6147 73.5013 35.7347 72.84 37.164C72.2 38.5933 71.88 40.1933 71.88 41.964C71.88 44.0333 72.2 45.9213 72.84 47.628C73.48 49.3347 74.4613 50.7 75.784 51.724C77.1067 52.748 78.7387 53.26 80.68 53.26C82.0453 53.26 83.2827 52.8547 84.392 52.044C85.5227 51.2333 86.408 50.1133 87.048 48.684C87.7093 47.2547 88.04 45.6547 88.04 43.884C88.04 41.7933 87.72 39.8947 87.08 38.188C86.44 36.4813 85.4587 35.1267 84.136 34.124C82.8133 33.1 81.1813 32.588 79.24 32.588ZM106.65 55.852C105.562 55.852 104.549 55.532 103.61 54.892V60.876L108.154 62.22L107.45 63.66H96.6023V62.508L99.4503 60.236V43.404L96.6023 41.708V40.556L102.298 37.836L103.418 41.932L107.866 38.38C108.549 38.2093 109.328 38.124 110.202 38.124C111.376 38.124 112.442 38.4973 113.402 39.244C114.362 39.9693 115.109 40.972 115.642 42.252C116.176 43.5107 116.442 44.8973 116.442 46.412C116.442 48.076 115.93 49.6333 114.906 51.084C113.904 52.5133 112.634 53.6653 111.098 54.54C109.562 55.3933 108.08 55.82 106.65 55.82V55.852ZM108.474 41.484C107.685 41.484 106.917 41.6333 106.17 41.932C105.445 42.2093 104.592 42.764 103.61 43.596V48.972C103.61 50.1027 104.026 51.052 104.858 51.82C105.712 52.588 106.928 52.972 108.506 52.972C109.658 52.972 110.522 52.556 111.098 51.724C111.674 50.8707 111.962 49.6227 111.962 47.98C111.962 46.1453 111.653 44.6093 111.034 43.372C110.437 42.1133 109.584 41.484 108.474 41.484ZM129.73 55.564C129.196 55.7347 128.546 55.82 127.778 55.82C125.943 55.82 124.599 55.3613 123.746 54.444C122.914 53.5053 122.498 52.0653 122.498 50.124V40.876H119.042V39.5L125.282 32.332H126.658V39.404H132.418V40.876H126.658V50.38C126.658 52.0653 127.49 52.908 129.154 52.908C129.602 52.908 130.028 52.8227 130.434 52.652C130.839 52.46 131.362 52.1293 132.002 51.66L132.962 53.004L129.73 55.564ZM144.254 55.5H135.102V54.348L137.95 52.076V43.116L135.102 41.164V40.012L140.734 37.836H142.11V53.004L144.99 54.06L144.254 55.5ZM139.902 28.236C140.606 28.236 141.182 28.492 141.63 29.004C142.078 29.4947 142.302 30.1027 142.302 30.828C142.302 31.34 142.142 31.8307 141.822 32.3C141.502 32.748 141.097 33.1107 140.606 33.388C140.116 33.644 139.636 33.772 139.166 33.772C138.484 33.772 137.918 33.5267 137.47 33.036C137.022 32.5453 136.798 31.9267 136.798 31.18C136.798 30.668 136.958 30.188 137.278 29.74C137.598 29.2707 138.004 28.908 138.494 28.652C138.985 28.3747 139.454 28.236 139.902 28.236ZM157.937 38.124C159.387 38.124 160.678 38.4973 161.809 39.244C162.961 39.9693 163.857 40.9613 164.497 42.22C165.137 43.4787 165.457 44.876 165.457 46.412C165.457 48.076 164.945 49.6333 163.921 51.084C162.918 52.5133 161.649 53.6653 160.113 54.54C158.577 55.3933 157.094 55.82 155.665 55.82C154.235 55.82 152.945 55.4573 151.793 54.732C150.662 53.9853 149.766 52.9827 149.105 51.724C148.465 50.4653 148.145 49.068 148.145 47.532C148.145 45.868 148.646 44.3213 149.649 42.892C150.673 41.4413 151.953 40.2893 153.489 39.436C155.025 38.5613 156.507 38.124 157.937 38.124ZM156.081 41.036C153.777 41.036 152.625 42.6893 152.625 45.996C152.625 47.98 153.041 49.6333 153.873 50.956C154.726 52.2787 155.942 52.94 157.521 52.94C158.651 52.94 159.505 52.5133 160.081 51.66C160.657 50.8067 160.945 49.5587 160.945 47.916C160.945 45.9533 160.518 44.3213 159.665 43.02C158.833 41.6973 157.638 41.036 156.081 41.036ZM189.322 55.532H183.018V44.844C183.018 43.7133 182.836 42.924 182.474 42.476C182.111 42.0067 181.482 41.772 180.586 41.772C179.924 41.772 179.263 41.8893 178.602 42.124C177.94 42.3587 177.172 42.8067 176.298 43.468V53.036L179.178 54.092L178.442 55.532H169.29V54.38L172.138 52.108V43.404L169.29 41.708V40.556L174.986 37.836L176.106 41.9L180.522 38.38C181.012 38.2093 181.61 38.124 182.314 38.124C183.807 38.124 184.991 38.572 185.866 39.468C186.74 40.3427 187.178 41.5373 187.178 43.052V53.004L190.058 54.092L189.322 55.532ZM202.526 51.916C202.526 51.3613 202.206 50.8493 201.566 50.38C200.926 49.8893 199.945 49.292 198.622 48.588C197.491 47.9907 196.585 47.4787 195.902 47.052C195.241 46.6253 194.665 46.1347 194.174 45.58C193.705 45.004 193.47 44.3747 193.47 43.692C193.47 42.924 193.801 42.1027 194.462 41.228C195.123 40.3533 195.934 39.6173 196.894 39.02C197.875 38.4227 198.771 38.124 199.582 38.124C200.585 38.124 201.747 38.252 203.07 38.508C204.393 38.7427 205.353 39.0093 205.95 39.308V44.332H204.574C203.913 43.0733 203.145 42.092 202.27 41.388C201.395 40.6627 200.489 40.3 199.55 40.3C198.931 40.3 198.43 40.4707 198.046 40.812C197.683 41.132 197.502 41.5373 197.502 42.028C197.502 42.6467 197.833 43.2013 198.494 43.692C199.155 44.1827 200.179 44.8013 201.566 45.548C202.654 46.1027 203.529 46.5933 204.19 47.02C204.851 47.4253 205.417 47.9053 205.886 48.46C206.355 48.9933 206.59 49.5907 206.59 50.252C206.59 51.0413 206.238 51.8733 205.534 52.748C204.851 53.6013 204.009 54.3267 203.006 54.924C202.025 55.5213 201.118 55.82 200.286 55.82C199.219 55.82 197.939 55.692 196.446 55.436C194.974 55.18 193.929 54.9133 193.31 54.636V49.58H194.686C195.411 50.86 196.275 51.8627 197.278 52.588C198.281 53.292 199.294 53.644 200.318 53.644C200.979 53.644 201.513 53.4733 201.918 53.132C202.323 52.7907 202.526 52.3853 202.526 51.916Z" fill="black"/>
</g>
<defs>
<filter id="filter0_i_5_162" x="-7.6" y="-7.6" width="281.6" height="91.6" filterUnits="userSpaceOnUse" color-interpolation-filters="sRGB">
<feFlood flood-opacity="0" result="BackgroundImageFix"/>
<feBlend mode="normal" in="SourceGraphic" in2="BackgroundImageFix" result="shape"/>
<feColorMatrix in="SourceAlpha" type="matrix" values="0 0 0 0 0 0 0 0 0 0 0 0 0 0 0 0 0 0 127 0" result="hardAlpha"/>
<feOffset dx="-8" dy="-11"/>
<feGaussianBlur stdDeviation="3.8"/>
<feComposite in2="hardAlpha" operator="arithmetic" k2="-1" k3="1"/>
<feColorMatrix type="matrix" values="0 0 0 0 0 0 0 0 0 0 0 0 0 0 0 0 0 0 0.25 0"/>
<feBlend mode="normal" in2="shape" result="effect1_innerShadow_5_162"/>
</filter>
<linearGradient id="paint0_linear_5_162" x1="30.5" y1="42" x2="310" y2="117" gradientUnits="userSpaceOnUse">
<stop offset="0.11" stop-color="#C9EBEB"/>
<stop offset="1" stop-color="#878884"/>
</linearGradient>
</defs>
</svg>
